<svg xmlns="http://www.w3.org/2000/svg" viewBox="0 0 1920 1080" width="1920" height="1080" preserveAspectRatio="xMidYMid slice">
  <defs>
    <radialGradient id="bg1" cx="50%" cy="40%" r="80%" fx="50%" fy="40%">
      <stop offset="0%" stop-color="#85D5D0" stop-opacity="0.25"/>
      <stop offset="60%" stop-color="#23272f" stop-opacity="0.8"/>
      <stop offset="100%" stop-color="#181c23" stop-opacity="1"/>
    </radialGradient>
    <linearGradient id="line1" x1="0" y1="0" x2="1" y2="1">
      <stop offset="0%" stop-color="#85D5D0"/>
      <stop offset="100%" stop-color="#EDE3D4"/>
    </linearGradient>
  </defs>
  <rect width="1920" height="1080" fill="url(#bg1)"/>
  <!-- Líneas tech -->
  <g stroke="url(#line1)" stroke-width="2" opacity="0.18">
    <polyline points="200,300 600,200 900,400 1200,250 1600,350"/>
    <polyline points="400,700 800,600 1100,800 1500,650 1700,900"/>
    <polyline points="300,900 700,950 1200,900 1700,1000"/>
    <polyline points="100,500 500,400 900,600 1300,500 1800,700"/>
  </g>
  <!-- Nodos tech -->
  <g>
    <circle cx="600" cy="200" r="10" fill="#85D5D0" opacity="0.35"/>
    <circle cx="900" cy="400" r="8" fill="#EDE3D4" opacity="0.25"/>
    <circle cx="1200" cy="250" r="12" fill="#85D5D0" opacity="0.25"/>
    <circle cx="1500" cy="650" r="9" fill="#EDE3D4" opacity="0.25"/>
    <circle cx="1700" cy="900" r="7" fill="#85D5D0" opacity="0.25"/>
    <circle cx="700" cy="950" r="6" fill="#EDE3D4" opacity="0.18"/>
    <circle cx="1300" cy="500" r="10" fill="#85D5D0" opacity="0.18"/>
  </g>
</svg>